{
  "accessors": [
    {
      "bufferView": 2,
      "componentType": 5126,
      "count": 5666,
      "max": [
        -828.1383056640625,
        1051.1361083984375,
        -64.2927017211914
      ],
      "min": [
        -953.1019287109375,
        800.2225952148438,
        -102.74726104736328
      ],
      "type": "VEC3"
    },
    {
      "bufferView": 2,
      "byteOffset": 67992,
      "componentType": 5126,
      "count": 5666,
      "max": [
        0.9999984502792358,
        0.9999991059303284,
        0.9999738931655884
      ],
      "min": [
        -0.9999983310699463,
        -0.9999659657478333,
        -0.9999948143959045
      ],
      "type": "VEC3"
    },
    {
      "bufferView": 1,
      "componentType": 5126,
      "count": 5666,
      "max": [
        0.9980468153953552,
        0.864013671875
      ],
      "min": [
        0.5009765028953552,
        -0.10351550579071045
      ],
      "type": "VEC2"
    },
    {
      "bufferView": 0,
      "componentType": 5125,
      "count": 10968,
      "type": "SCALAR"
    },
    {
      "bufferView": 2,
      "byteOffset": 135984,
      "componentType": 5126,
      "count": 888,
      "max": [
        -827.6531372070313,
        1055.3868408203125,
        -64.01487731933594
      ],
      "min": [
        -953.5628051757813,
        798.6201782226563,
        -117.88934326171875
      ],
      "type": "VEC3"
    },
    {
      "bufferView": 2,
      "byteOffset": 146640,
      "componentType": 5126,
      "count": 888,
      "max": [
        0.9999982118606567,
        0.9998406171798706,
        0.9999990463256836
      ],
      "min": [
        -0.9999979734420776,
        -0.9994680881500244,
        -0.9999989867210388
      ],
      "type": "VEC3"
    },
    {
      "bufferView": 1,
      "byteOffset": 45328,
      "componentType": 5126,
      "count": 888,
      "max": [
        1.0009764432907104,
        5.53515625
      ],
      "min": [
        -0.0026168820913881063,
        -20.792966842651367
      ],
      "type": "VEC2"
    },
    {
      "bufferView": 0,
      "byteOffset": 43872,
      "componentType": 5125,
      "count": 1824,
      "type": "SCALAR"
    },
    {
      "bufferView": 2,
      "byteOffset": 157296,
      "componentType": 5126,
      "count": 3688,
      "max": [
        -830.6124877929688,
        1015.9898681640625,
        2.981926679611206
      ],
      "min": [
        -950.5388793945313,
        820.0877075195313,
        -114.47607421875
      ],
      "type": "VEC3"
    },
    {
      "bufferView": 2,
      "byteOffset": 201552,
      "componentType": 5126,
      "count": 3688,
      "max": [
        0.9999988079071045,
        0.9999995827674866,
        0.9999990463256836
      ],
      "min": [
        -0.9999985098838806,
        -0.9999995827674866,
        -0.9999990463256836
      ],
      "type": "VEC3"
    },
    {
      "bufferView": 1,
      "byteOffset": 52432,
      "componentType": 5126,
      "count": 3688,
      "max": [
        0.9975585341453552,
        0.9942398071289063
      ],
      "min": [
        0.1895751804113388,
        0.0014649033546447754
      ],
      "type": "VEC2"
    },
    {
      "bufferView": 0,
      "byteOffset": 51168,
      "componentType": 5125,
      "count": 10032,
      "type": "SCALAR"
    },
    {
      "bufferView": 2,
      "byteOffset": 245808,
      "componentType": 5126,
      "count": 136,
      "max": [
        -872.7938232421875,
        883.205810546875,
        -13.441570281982422
      ],
      "min": [
        -908.689453125,
        835.1519165039063,
        -32.21931076049805
      ],
      "type": "VEC3"
    },
    {
      "bufferView": 2,
      "byteOffset": 247440,
      "componentType": 5126,
      "count": 136,
      "max": [
        0.9999979734420776,
        0.9998777508735657,
        0.9988165497779846
      ],
      "min": [
        -0.9999979734420776,
        -0.9999995827674866,
        -0.9999862909317017
      ],
      "type": "VEC3"
    },
    {
      "bufferView": 1,
      "byteOffset": 81936,
      "componentType": 5126,
      "count": 136,
      "max": [
        0.3142089545726776,
        0.7537841796875
      ],
      "min": [
        0.0621643029153347,
        0.2607422471046448
      ],
      "type": "VEC2"
    },
    {
      "bufferView": 0,
      "byteOffset": 91296,
      "componentType": 5125,
      "count": 312,
      "type": "SCALAR"
    },
    {
      "bufferView": 2,
      "byteOffset": 249072,
      "componentType": 5126,
      "count": 270,
      "max": [
        -884.4385375976563,
        835.158203125,
        -14.654397010803223
      ],
      "min": [
        -897.0614624023438,
        735.2755126953125,
        -28.193744659423828
      ],
      "type": "VEC3"
    },
    {
      "bufferView": 2,
      "byteOffset": 252312,
      "componentType": 5126,
      "count": 270,
      "max": [
        0.9999980330467224,
        0.9999995231628418,
        0.9999990463256836
      ],
      "min": [
        -0.9999980926513672,
        -0.9999996423721313,
        -0.9999990463256836
      ],
      "type": "VEC3"
    },
    {
      "bufferView": 1,
      "byteOffset": 83024,
      "componentType": 5126,
      "count": 270,
      "max": [
        0.7480468153953552,
        0.55224609375
      ],
      "min": [
        0.0992431566119194,
        0.12744146585464478
      ],
      "type": "VEC2"
    },
    {
      "bufferView": 0,
      "byteOffset": 92544,
      "componentType": 5125,
      "count": 702,
      "type": "SCALAR"
    },
    {
      "bufferView": 2,
      "byteOffset": 255552,
      "componentType": 5126,
      "count": 1875,
      "max": [
        -833.93212890625,
        994.5020751953125,
        2.8531060218811035
      ],
      "min": [
        -947.5543823242188,
        876.1823120117188,
        -38.08323287963867
      ],
      "type": "VEC3"
    },
    {
      "bufferView": 2,
      "byteOffset": 278052,
      "componentType": 5126,
      "count": 1875,
      "max": [
        0.999998152256012,
        0.9999997019767761,
        0.9999991655349731
      ],
      "min": [
        -0.9999980926513672,
        -0.9999997019767761,
        -1.0
      ],
      "type": "VEC3"
    },
    {
      "bufferView": 1,
      "byteOffset": 85184,
      "componentType": 5126,
      "count": 1875,
      "max": [
        0.9995116591453552,
        0.9925727844238281
      ],
      "min": [
        3.0517576306010596e-05,
        0.08203130960464478
      ],
      "type": "VEC2"
    },
    {
      "bufferView": 0,
      "byteOffset": 95352,
      "componentType": 5125,
      "count": 4092,
      "type": "SCALAR"
    },
    {
      "bufferView": 2,
      "byteOffset": 300552,
      "componentType": 5126,
      "count": 2562,
      "max": [
        -824.3345336914063,
        1054.043701171875,
        -37.91130065917969
      ],
      "min": [
        -956.9645385742188,
        790.17236328125,
        -112.14532470703125
      ],
      "type": "VEC3"
    },
    {
      "bufferView": 2,
      "byteOffset": 331296,
      "componentType": 5126,
      "count": 2562,
      "max": [
        1.0,
        1.0,
        0.9999996423721313
      ],
      "min": [
        -1.0,
        -0.9999998211860657,
        -0.9999998807907104
      ],
      "type": "VEC3"
    },
    {
      "bufferView": 1,
      "byteOffset": 100184,
      "componentType": 5126,
      "count": 2562,
      "max": [
        0.9985350966453552,
        0.9968738555908203
      ],
      "min": [
        3.0517576306010596e-05,
        0.0019531846046447754
      ],
      "type": "VEC2"
    },
    {
      "bufferView": 0,
      "byteOffset": 111720,
      "componentType": 5125,
      "count": 4773,
      "type": "SCALAR"
    }
  ],
  "asset": {
    "extras": {
      "author": "Joanthan To (https://sketchfab.com/Toshueyi)",
      "license": "CC-BY-4.0 (http://creativecommons.org/licenses/by/4.0/)",
      "source": "https://sketchfab.com/3d-models/panzer-iv-medium-tank-toshueyi-14c74d148326448c8edb5fee81be3894",
      "title": "Panzer IV Medium Tank - Toshueyi"
    },
    "generator": "Sketchfab-12.68.0",
    "version": "2.0"
  },
  "bufferViews": [
    {
      "buffer": 0,
      "byteLength": 130812,
      "name": "floatBufferViews",
      "target": 34963
    },
    {
      "buffer": 0,
      "byteLength": 120680,
      "byteOffset": 130812,
      "byteStride": 8,
      "name": "floatBufferViews",
      "target": 34962
    },
    {
      "buffer": 0,
      "byteLength": 362040,
      "byteOffset": 251492,
      "byteStride": 12,
      "name": "floatBufferViews",
      "target": 34962
    }
  ],
  "buffers": [
    {
      "byteLength": 613532,
      "uri": "scene.bin"
    }
  ],
  "images": [
    {
      "uri": "textures/Material_5933_baseColor.png"
    },
    {
      "uri": "textures/Material_5937_baseColor.png"
    }
  ],
  "materials": [
    {
      "doubleSided": true,
      "name": "Material_5933",
      "pbrMetallicRoughness": {
        "baseColorTexture": {
          "index": 0
        },
        "metallicFactor": 0.0,
        "roughnessFactor": 0.6
      }
    },
    {
      "doubleSided": true,
      "name": "Material_5935",
      "pbrMetallicRoughness": {
        "baseColorTexture": {
          "index": 0
        },
        "metallicFactor": 0.0,
        "roughnessFactor": 0.6
      }
    },
    {
      "doubleSided": true,
      "name": "Material_5932",
      "pbrMetallicRoughness": {
        "baseColorTexture": {
          "index": 0
        },
        "metallicFactor": 0.0,
        "roughnessFactor": 0.6
      }
    },
    {
      "doubleSided": true,
      "name": "Material_5934",
      "pbrMetallicRoughness": {
        "baseColorTexture": {
          "index": 0
        },
        "metallicFactor": 0.0,
        "roughnessFactor": 0.6
      }
    },
    {
      "doubleSided": true,
      "name": "Material_5936",
      "pbrMetallicRoughness": {
        "baseColorTexture": {
          "index": 0
        },
        "metallicFactor": 0.0,
        "roughnessFactor": 0.6
      }
    },
    {
      "doubleSided": true,
      "name": "Material_5937",
      "pbrMetallicRoughness": {
        "baseColorTexture": {
          "index": 1
        },
        "metallicFactor": 0.0,
        "roughnessFactor": 0.6
      }
    },
    {
      "doubleSided": true,
      "name": "Material_63",
      "pbrMetallicRoughness": {
        "baseColorTexture": {
          "index": 0
        },
        "metallicFactor": 0.0,
        "roughnessFactor": 0.6
      }
    }
  ],
  "meshes": [
    {
      "name": "Object_0",
      "primitives": [
        {
          "attributes": {
            "NORMAL": 1,
            "POSITION": 0,
            "TEXCOORD_0": 2
          },
          "indices": 3,
          "material": 6,
          "mode": 4
        }
      ]
    },
    {
      "name": "Object_1",
      "primitives": [
        {
          "attributes": {
            "NORMAL": 5,
            "POSITION": 4,
            "TEXCOORD_0": 6
          },
          "indices": 7,
          "material": 5,
          "mode": 4
        }
      ]
    },
    {
      "name": "Object_2",
      "primitives": [
        {
          "attributes": {
            "NORMAL": 9,
            "POSITION": 8,
            "TEXCOORD_0": 10
          },
          "indices": 11,
          "material": 4,
          "mode": 4
        }
      ]
    },
    {
      "name": "Object_3",
      "primitives": [
        {
          "attributes": {
            "NORMAL": 13,
            "POSITION": 12,
            "TEXCOORD_0": 14
          },
          "indices": 15,
          "material": 3,
          "mode": 4
        }
      ]
    },
    {
      "name": "Object_4",
      "primitives": [
        {
          "attributes": {
            "NORMAL": 17,
            "POSITION": 16,
            "TEXCOORD_0": 18
          },
          "indices": 19,
          "material": 2,
          "mode": 4
        }
      ]
    },
    {
      "name": "Object_5",
      "primitives": [
        {
          "attributes": {
            "NORMAL": 21,
            "POSITION": 20,
            "TEXCOORD_0": 22
          },
          "indices": 23,
          "material": 1,
          "mode": 4
        }
      ]
    },
    {
      "name": "Object_6",
      "primitives": [
        {
          "attributes": {
            "NORMAL": 25,
            "POSITION": 24,
            "TEXCOORD_0": 26
          },
          "indices": 27,
          "material": 0,
          "mode": 4
        }
      ]
    }
  ],
  "nodes": [
    {
      "children": [
        1
      ],
      "matrix": [
        1.0,
        0.0,
        0.0,
        0.0,
        0.0,
        2.220446049250313e-16,
        -1.0,
        0.0,
        0.0,
        1.0,
        2.220446049250313e-16,
        0.0,
        0.0,
        0.0,
        0.0,
        1.0
      ],
      "name": "Sketchfab_model"
    },
    {
      "children": [
        2,
        5,
        8,
        11,
        14,
        17,
        20
      ],
      "name": "3ds file.3DS"
    },
    {
      "children": [
        3
      ],
      "matrix": [
        0.37212884426116943,
        0.39825189113616943,
        -0.005782082211226225,
        0.0,
        -0.8487122654914856,
        0.792405366897583,
        -0.043823517858982086,
        0.0,
        -0.009391379542648792,
        0.015479792840778828,
        0.4617805778980255,
        0.0,
        0.06256204098463058,
        17.662330627441406,
        0.0019378662109375,
        1.0
      ],
      "name": "Wheel"
    },
    {
      "children": [
        4
      ],
      "matrix": [
        1.2524621490848418,
        -0.6286108916202484,
        -0.0439734854297654,
        0.0,
        1.3403833100262634,
        0.5869064485517724,
        0.07248140922705419,
        0.0,
        -0.019460562349630502,
        -0.032458517833588274,
        2.162206638691324,
        0.0,
        -135.75326056405984,
        -1110.593835504819,
        148.18617434477852,
        1.0
      ],
      "name": "3DSMeshMatrix"
    },
    {
      "mesh": 0,
      "name": "Object_4"
    },
    {
      "children": [
        6
      ],
      "matrix": [
        0.37212884426116943,
        0.39825189113616943,
        -0.005782082211226225,
        0.0,
        -0.8487122654914856,
        0.792405366897583,
        -0.043823517858982086,
        0.0,
        -0.009391379542648792,
        0.015479792840778828,
        0.4617805778980255,
        0.0,
        0.06256204098463058,
        17.662330627441406,
        0.0019378662109375,
        1.0
      ],
      "name": "Chain"
    },
    {
      "children": [
        7
      ],
      "matrix": [
        1.2524621490848418,
        -0.6286108916202484,
        -0.0439734854297654,
        0.0,
        1.3403833100262634,
        0.5869064485517724,
        0.07248140922705419,
        0.0,
        -0.019460562349630502,
        -0.032458517833588274,
        2.162206638691324,
        0.0,
        -135.75326056405984,
        -1110.593835504819,
        148.18617434477852,
        1.0
      ],
      "name": "3DSMeshMatrix"
    },
    {
      "mesh": 1,
      "name": "Object_7"
    },
    {
      "children": [
        9
      ],
      "matrix": [
        0.3721288740634918,
        0.39825186133384705,
        -0.005782080348581076,
        0.0,
        -0.848712146282196,
        0.792405366897583,
        -0.043823521584272385,
        0.0,
        -0.009391381405293941,
        0.015479793772101402,
        0.4617805778980255,
        0.0,
        0.06256204098463058,
        17.662330627441406,
        0.0019378662109375,
        1.0
      ],
      "name": "DrawCall_8"
    },
    {
      "children": [
        10
      ],
      "matrix": [
        1.2524621023520683,
        -0.6286108680169277,
        -0.04397349137206033,
        0.0,
        1.340383260061032,
        0.5869064735897169,
        0.07248141300897058,
        0.0,
        -0.019460559099141923,
        -0.032458519460668314,
        2.16220663835501,
        0.0,
        -135.75337411955798,
        -1110.5939580188335,
        148.18615901956443,
        1.0
      ],
      "name": "3DSMeshMatrix"
    },
    {
      "mesh": 2,
      "name": "Object_10"
    },
    {
      "children": [
        12
      ],
      "matrix": [
        0.3721288740634918,
        0.39825186133384705,
        -0.005782080348581076,
        0.0,
        -0.848712146282196,
        0.792405366897583,
        -0.043823521584272385,
        0.0,
        -0.009391381405293941,
        0.015479793772101402,
        0.4617805778980255,
        0.0,
        0.06256204098463058,
        17.662330627441406,
        0.0019378662109375,
        1.0
      ],
      "name": "DrawCall_7"
    },
    {
      "children": [
        13
      ],
      "matrix": [
        1.2524621023520683,
        -0.6286108680169277,
        -0.04397349137206033,
        0.0,
        1.340383260061032,
        0.5869064735897169,
        0.07248141300897058,
        0.0,
        -0.019460559099141923,
        -0.032458519460668314,
        2.16220663835501,
        0.0,
        -135.75337411955798,
        -1110.5939580188335,
        148.18615901956443,
        1.0
      ],
      "name": "3DSMeshMatrix"
    },
    {
      "mesh": 3,
      "name": "Object_13"
    },
    {
      "children": [
        15
      ],
      "matrix": [
        0.3721288740634918,
        0.39825186133384705,
        -0.005782080348581076,
        0.0,
        -0.848712146282196,
        0.792405366897583,
        -0.043823521584272385,
        0.0,
        -0.009391381405293941,
        0.015479793772101402,
        0.4617805778980255,
        0.0,
        0.06256204098463058,
        17.662330627441406,
        0.0019378662109375,
        1.0
      ],
      "name": "DrawCall_6"
    },
    {
      "children": [
        16
      ],
      "matrix": [
        1.2524621023520683,
        -0.6286108680169277,
        -0.04397349137206033,
        0.0,
        1.340383260061032,
        0.5869064735897169,
        0.07248141300897058,
        0.0,
        -0.019460559099141923,
        -0.032458519460668314,
        2.16220663835501,
        0.0,
        -135.75337411955798,
        -1110.5939580188335,
        148.18615901956443,
        1.0
      ],
      "name": "3DSMeshMatrix"
    },
    {
      "mesh": 4,
      "name": "Object_16"
    },
    {
      "children": [
        18
      ],
      "matrix": [
        0.3721288740634918,
        0.39825186133384705,
        -0.005782080348581076,
        0.0,
        -0.848712146282196,
        0.792405366897583,
        -0.043823521584272385,
        0.0,
        -0.009391381405293941,
        0.015479793772101402,
        0.4617805778980255,
        0.0,
        0.06256204098463058,
        17.662330627441406,
        0.0019378662109375,
        1.0
      ],
      "name": "DrawCall_1"
    },
    {
      "children": [
        19
      ],
      "matrix": [
        1.2524621023520683,
        -0.6286108680169277,
        -0.04397349137206033,
        0.0,
        1.340383260061032,
        0.5869064735897169,
        0.07248141300897058,
        0.0,
        -0.019460559099141923,
        -0.032458519460668314,
        2.16220663835501,
        0.0,
        -135.75337411955798,
        -1110.5939580188335,
        148.18615901956443,
        1.0
      ],
      "name": "3DSMeshMatrix"
    },
    {
      "mesh": 5,
      "name": "Object_19"
    },
    {
      "children": [
        21
      ],
      "matrix": [
        0.3721288740634918,
        0.39825186133384705,
        -0.005782080348581076,
        0.0,
        -0.848712146282196,
        0.792405366897583,
        -0.043823521584272385,
        0.0,
        -0.009391381405293941,
        0.015479793772101402,
        0.4617805778980255,
        0.0,
        0.06256204098463058,
        17.662330627441406,
        0.0019378662109375,
        1.0
      ],
      "name": "DrawCall_0"
    },
    {
      "children": [
        22
      ],
      "matrix": [
        1.2524621023520683,
        -0.6286108680169277,
        -0.04397349137206033,
        0.0,
        1.340383260061032,
        0.5869064735897169,
        0.07248141300897058,
        0.0,
        -0.019460559099141923,
        -0.032458519460668314,
        2.16220663835501,
        0.0,
        -135.75337411955798,
        -1110.5939580188335,
        148.18615901956443,
        1.0
      ],
      "name": "3DSMeshMatrix"
    },
    {
      "mesh": 6,
      "name": "Object_22"
    }
  ],
  "samplers": [
    {
      "magFilter": 9729,
      "minFilter": 9987,
      "wrapS": 10497,
      "wrapT": 10497
    }
  ],
  "scene": 0,
  "scenes": [
    {
      "name": "Sketchfab_Scene",
      "nodes": [
        0
      ]
    }
  ],
  "textures": [
    {
      "sampler": 0,
      "source": 0
    },
    {
      "sampler": 0,
      "source": 1
    }
  ]
}
